<svg width="512" height="512" version="1.1" xmlns="http://www.w3.org/2000/svg" desc="Created with imagetracer.js version 1.2.5"><path d="M 382.5 108 L 393.5 109 L 397 112.5 L 398 114.5 L 398 126.5 L 397 127.5 L 395 145.5 L 391 159.5 L 377 188.5 Q 357.6 220.6 330.5 245 Q 309.1 265.1 283 280.5 L 282 282.5 L 282 302.5 L 281 303.5 L 281 323.5 L 280 327.5 L 271.5 337 L 254 353.5 L 252.5 356 L 244 363.5 L 242.5 366 L 225 382.5 L 223.5 385 L 215.5 391 L 207.5 391 Q 201.8 388.6 201 381.5 L 206 370.5 L 228 344.5 L 237 331.5 L 241 319.5 L 242 302.5 L 239.5 298 L 233.5 303 L 228 303 L 214 329.5 Q 200.5 348 183.5 363 L 155.5 383 L 141.5 390 L 111.5 400 L 106 393.5 Q 111.9 370.9 122 352.5 Q 135.4 329.9 153.5 312 L 181.5 289 L 196.5 280 L 203 278 L 203 272.5 L 208 266.5 Q 204.4 262.6 195.5 264 L 194.5 265 L 183.5 266 L 173.5 270 Q 152.3 283.8 134.5 301 Q 130.5 305 122.5 305 L 115 298.5 Q 113.7 289.7 118 286.5 L 178.5 226 Q 183.3 227.3 184.5 225 L 203.5 225 L 204.5 224 L 225.5 224 L 228 221.5 Q 248.8 186.8 277.5 160 Q 294.9 142.6 317 131 Q 315.9 128.3 318.5 129 L 334.5 120 L 337.5 120 L 354.5 113 L 366.5 110 L 381.5 109 L 382.5 108 Z M 374 121 L 353 126 L 351 128 L 356 135 L 379 155 L 381 153 L 384 143 L 385 125 L 386 124 L 386 121 L 374 121 Z M 340 131 L 320 141 L 288 165 Q 244 204 219 262 L 220 265 L 225 268 L 225 270 L 243 287 L 246 287 L 281 269 Q 303 256 322 239 L 331 229 L 334 227 Q 360 201 375 165 L 362 155 L 340 131 Z M 210 236 L 209 237 L 188 237 Q 186 239 182 238 L 166 253 L 164 256 L 132 289 L 169 260 L 179 255 L 193 252 Q 204 251 211 253 L 219 237 L 210 236 Z M 212 286 Q 187 297 168 313 Q 148 330 135 353 L 124 376 L 122 384 L 138 378 L 141 378 L 161 367 L 190 343 L 209 317 L 217 302 L 220 293 L 214 286 L 212 286 Z M 270 287 L 253 297 L 254 299 Q 256 323 247 337 L 215 377 L 217 377 L 253 340 L 258 336 L 268 326 L 269 321 L 269 299 L 270 298 L 270 287 Z "></path><path d="M 319.5 165 Q 333 166 338 175.5 Q 341.9 179.6 341 188.5 Q 339.1 197.1 333.5 202 L 323.5 207 L 317.5 207 L 313.5 206 L 305 199.5 Q 299 194.5 299 183.5 Q 301.3 172.8 309.5 168 L 319.5 165 Z M 317 174 L 311 177 L 308 183 Q 307 190 310 194 L 313 196 L 321 199 L 329 196 L 332 191 Q 334 183 331 180 L 324 174 L 317 174 Z "></path><path d="M 276.5 204 Q 294.8 201.8 300 212.5 Q 303.8 217.2 304 225.5 Q 301.4 236.9 292.5 242 Q 287.5 246 276.5 244 L 267 237.5 Q 261.7 232.3 262 221.5 Q 263.5 211.5 270.5 207 L 276.5 204 Z M 279 212 L 275 214 L 271 220 Q 270 227 272 231 L 279 236 Q 287 237 291 234 L 295 228 Q 296 220 293 217 Q 290 210 279 212 Z "></path><path d="M 182.5 309 Q 187.3 308.3 188 311.5 L 185.5 316 Q 169.5 326 158 340.5 L 144 359.5 L 143 363.5 L 144.5 363 Q 165.3 351.8 180 334.5 L 192.5 319 Q 199.7 316.7 197 324.5 Q 185.8 341.3 170.5 354 L 148.5 370 L 134.5 377 L 131.5 377 Q 128.8 375.8 130 370.5 Q 143.3 342.8 164.5 323 L 182.5 309 Z "></path></svg>
