<svg width="180" height="180" version="1.1" xmlns="http://www.w3.org/2000/svg" desc="Created with imagetracer.js version 1.2.5"><path fill="rgb(235,238,255)" stroke="rgb(235,238,255)" stroke-width="1" opacity="1" d="M 128.5 38 L 138.5 38 L 140 39.5 L 139 53.5 L 133 66.5 Q 124.9 80.4 112.5 90 L 99 99.5 L 99 115.5 L 77.5 137 L 72.5 138 L 70 134.5 L 73 128 Q 75.7 129.1 75 126.5 L 82 118.5 L 84 114.5 L 85 106.5 L 83 105.5 L 83 107 Q 79.2 105.5 80 108.5 Q 73.4 121.4 62.5 130 Q 53.3 137.8 39.5 141 L 37 137.5 L 40 128.5 L 47 116 Q 49.7 117.1 49 114.5 L 52 110 L 66.5 99 L 71 98 L 72 93 L 63.5 94 L 59.5 96 L 46.5 107 L 43.5 108 L 40 105.5 L 41 100.5 L 47.5 94 Q 49.8 94.8 49 92.5 L 60.5 81 L 62 81 L 62.5 79 L 71.5 79 Q 73.3 76.2 79.5 78 L 81 76.5 L 84 70.5 L 102.5 51 Q 113.2 42.2 128.5 38 Z M 130 43 L 124 46 L 134 54 L 135 49 Q 138 40 130 43 Z M 118 47 L 103 57 L 93 67 L 84 79 L 78 91 L 78 94 L 81 95 L 86 101 Q 101 95 112 85 Q 124 75 131 60 L 121 49 Q 122 45 118 47 Z M 74 83 L 73 84 L 64 84 L 54 95 L 63 89 L 68 88 Q 72 87 74 89 L 76 85 Q 77 82 74 83 Z M 74 101 Q 60 107 51 119 L 52 120 L 65 108 L 66 111 L 62 114 L 57 120 L 54 121 L 52 126 L 58 123 L 65 115 L 69 111 L 70 113 L 69 115 L 70 116 Q 75 111 77 103 L 74 101 Z M 93 102 L 91 103 Q 88 104 90 106 L 89 116 L 82 126 L 89 120 Q 88 117 91 118 L 94 115 L 94 106 L 95 105 Q 96 101 93 102 Z M 69 116 L 66 120 L 69 118 L 69 116 Z M 49 123 L 47 126 L 49 125 L 49 123 Z M 61 124 L 60 126 L 62 125 L 61 124 Z M 45 131 Q 42 135 46 134 L 45 131 Z "></path><path fill="rgb(235,238,255)" stroke="rgb(235,238,255)" stroke-width="1" opacity="1" d="M 109.5 58 Q 118.5 56.5 120 62.5 Q 121.5 70.5 116.5 72 L 110.5 73 L 106 69.5 L 105 62.5 L 109.5 58 Z M 111 62 L 109 64 Q 108 68 111 69 Q 119 72 116 64 Q 115 61 111 62 Z "></path><path fill="rgb(235,238,255)" stroke="rgb(235,238,255)" stroke-width="1" opacity="1" d="M 97.5 71 Q 103.3 70.2 105 73.5 Q 108 75.5 107 81.5 Q 105.1 87.1 96.5 86 Q 90.5 84.5 92 75.5 L 97.5 71 Z M 98 75 Q 95 77 96 82 L 99 83 L 102 82 Q 104 81 103 77 Q 102 74 98 75 Z "></path><path fill="rgb(82,112,255)" stroke="rgb(82,112,255)" stroke-width="1" opacity="1" d="M 0 0 L 180 0 L 180 180 L 0 180 L 0 0 Z M 129 38 Q 113 42 103 51 L 84 71 L 81 77 L 80 78 Q 73 76 72 79 L 63 79 L 62 81 L 61 81 L 49 93 Q 50 95 48 94 L 41 101 L 40 106 L 44 108 L 47 107 L 60 96 L 64 94 L 72 93 L 71 98 L 67 99 L 52 110 L 49 115 Q 50 117 47 116 L 40 129 L 37 138 L 40 141 Q 53 138 63 130 Q 73 121 80 109 Q 79 105 83 107 L 83 106 L 85 107 L 84 115 L 82 119 L 75 127 Q 76 129 73 128 L 70 135 L 73 138 L 78 137 L 99 116 L 99 100 L 113 90 Q 125 80 133 67 L 139 54 L 140 40 L 139 38 L 129 38 Z "></path><path fill="rgb(82,112,255)" stroke="rgb(82,112,255)" stroke-width="1" opacity="1" d="M 129.5 43 Q 137.8 40.3 135 48.5 L 133.5 54 L 124 45.5 L 129.5 43 Z "></path><path fill="rgb(82,112,255)" stroke="rgb(82,112,255)" stroke-width="1" opacity="1" d="M 117.5 47 Q 121.9 45.5 121 48.5 L 131 59.5 Q 124.1 75.1 111.5 85 Q 100.5 95 85.5 101 L 80.5 95 L 78 93.5 L 78 90.5 L 84 78.5 L 93 66.5 L 102.5 57 L 117.5 47 Z M 110 58 L 105 63 L 106 70 L 111 73 L 117 72 Q 122 71 120 63 Q 119 57 110 58 Z M 98 71 L 92 76 Q 91 85 97 86 Q 105 87 107 82 Q 108 76 105 74 Q 103 70 98 71 Z "></path><path fill="rgb(82,112,255)" stroke="rgb(82,112,255)" stroke-width="1" opacity="1" d="M 110.5 62 Q 115 61 116 63.5 Q 118.8 71.8 110.5 69 Q 108 68 109 63.5 L 110.5 62 Z "></path><path fill="rgb(82,112,255)" stroke="rgb(82,112,255)" stroke-width="1" opacity="1" d="M 97.5 75 Q 102 74 103 76.5 Q 104 81 101.5 82 L 98.5 83 L 96 82 Q 94.5 76.6 97.5 75 Z "></path><path fill="rgb(82,112,255)" stroke="rgb(82,112,255)" stroke-width="1" opacity="1" d="M 73.5 83 Q 76.8 81.9 76 84.5 L 73.5 89 Q 72.3 86.8 67.5 88 L 58.5 91 L 50.5 98 L 63.5 84 L 72.5 84 L 73.5 83 Z "></path><path fill="rgb(82,112,255)" stroke="rgb(82,112,255)" stroke-width="1" opacity="1" d="M 73.5 101 L 77 102.5 Q 71.8 117.3 60.5 126 L 57.5 128 L 60.5 124 L 66 119.5 L 70 112.5 L 68.5 111 L 65 114.5 L 57.5 123 L 51.5 127 L 52 125.5 L 54 121 L 57 119.5 L 61.5 114 L 66 110.5 L 64.5 108 L 51 120.5 L 47.5 126 L 47 124.5 L 60.5 109 L 73.5 101 Z "></path><path fill="rgb(82,112,255)" stroke="rgb(82,112,255)" stroke-width="1" opacity="1" d="M 92.5 102 Q 96.3 100.8 95 104.5 L 94 105.5 L 94 114.5 L 90.5 118 Q 88.3 117.3 89 119.5 L 78 129.5 L 88 117.5 L 90 110.5 L 90 105.5 Q 87.8 104.3 90.5 103 L 92.5 102 Z "></path><path fill="rgb(82,112,255)" stroke="rgb(82,112,255)" stroke-width="1" opacity="1" d="M 44.5 131 L 46 134 L 43.5 135 L 44 133.5 L 44.5 131 Z "></path></svg>